<svg xmlns="http://www.w3.org/2000/svg" id="Layer_1" viewBox="0 0 256 256" width="256" height="256"><defs><style>.cls-1{fill-rule:evenodd}</style></defs><path d="M207 50c-21.2-17-50-26.7-79.08-26.7-29.58 0-57.71 9.53-79.2 26.85C26.33 68.2 14 92.68 14 119.08a84.59 84.59 0 0 0 18.1 52.21l-20.46 65.33 71.16-30.73a182.36 182.36 0 0 0 43.88 5.58c32 0 61.41-9.65 82.71-27.18 20.93-17.23 32.46-40.39 32.46-65.21 0-26.48-12.38-51-34.85-69.08zm-80.3 143c-17.35 0-31.34-3-43.86-6.18l-1.55-.4-39.97 17.25 11.41-36.45-1.64-2c-9.67-11.56-18.62-25.16-18.62-46.17 0-42.62 42.82-77.3 95.45-77.3s95.45 34.68 95.45 77.3c0 42.17-41.57 73.95-96.69 73.95z" class="cls-1"/><circle cx="173.44" cy="119.02" r="18.34"/><path d="M127.92 137.36A18.35 18.35 0 1 1 146.27 119a18.36 18.36 0 0 1-18.35 18.36zm-45.51 0A18.35 18.35 0 1 1 100.75 119a18.37 18.37 0 0 1-18.34 18.36z" class="cls-1"/></svg>