<svg id="Layer_1" data-name="Layer 1" xmlns="http://www.w3.org/2000/svg" viewBox="0 0 256 256"><defs><style>.cls-1{fill-rule:evenodd;}</style></defs><title>comment</title><path class="cls-1" d="M207,50C185.8,33,157,23.3,127.92,23.3c-29.58,0-57.71,9.53-79.2,26.85C26.33,68.2,14,92.68,14,119.08a84.59,84.59,0,0,0,18.1,52.21L11.64,236.62,82.8,205.89a182.36,182.36,0,0,0,43.88,5.58c32,0,61.41-9.65,82.71-27.18,20.93-17.23,32.46-40.39,32.46-65.21C241.85,92.6,229.47,68.08,207,50Zm-80.3,143c-17.35,0-31.34-3-43.86-6.18l-1.55-.4L41.32,203.67l11.41-36.45-1.64-2c-9.67-11.56-18.62-25.16-18.62-46.17,0-42.62,42.82-77.3,95.45-77.3s95.45,34.68,95.45,77.3C223.37,161.22,181.8,193,126.68,193Z"/><circle cx="173.44" cy="119.02" r="18.34"/><path class="cls-1" d="M127.92,137.36A18.35,18.35,0,1,1,146.27,119,18.36,18.36,0,0,1,127.92,137.36Z"/><path class="cls-1" d="M82.41,137.36A18.35,18.35,0,1,1,100.75,119,18.37,18.37,0,0,1,82.41,137.36Z"/></svg>